<!-- Mobile version - Single column -->
<svg viewBox="0 0 620 620" width="100%" height="580" xmlns="http://www.w3.org/2000/svg">
    <style>
        text { font-family: -apple-system, BlinkMacSystemFont, "Segoe UI", Roboto, Helvetica, Arial, sans-serif; }
        .box-bg { fill: #e6f4ea; stroke: #a7cdb3; stroke-width: 1; }
        .title { font-weight: 700; font-size: 14px; fill: #1a202c; }
        .content { font-size: 11px; fill: #4a5568; }
    </style>

    <g>
        <rect class="box-bg" x="16" y="16" width="588" height="84" rx="6"/>
        <rect x="16" y="16" width="4" height="84" fill="#1f883d"/>
        <text class="title" x="32" y="42">Best Practices</text>
        <text class="content" x="32" y="66">PSR standards &#8226; Clean code &#8226; Documentation ready</text>
        <text class="content" x="32" y="84">PER 3.0 + PSR-12 coding standards</text>
    </g>

    <g>
        <rect class="box-bg" x="16" y="116" width="588" height="84" rx="6"/>
        <rect x="16" y="116" width="4" height="84" fill="#1f883d"/>
        <text class="title" x="32" y="142">Easy Setup</text>
        <text class="content" x="32" y="166">Quick start template &#8226; Configuration examples &#8226; Clear structure</text>
        <text class="content" x="32" y="184">Ready-to-use project scaffolding</text>
    </g>

    <g>
        <rect class="box-bg" x="16" y="216" width="588" height="84" rx="6"/>
        <rect x="16" y="216" width="4" height="84" fill="#1f883d"/>
        <text class="title" x="32" y="242">GitHub Actions</text>
        <text class="content" x="32" y="266">CI/CD workflows &#8226; Automated testing &#8226; Quality checks</text>
        <text class="content" x="32" y="284">Super-Linter &#8226; PHPStan &#8226; ECS &#8226; Infection</text>
    </g>

    <g>
        <rect class="box-bg" x="16" y="316" width="588" height="84" rx="6"/>
        <rect x="16" y="316" width="4" height="84" fill="#1f883d"/>
        <text class="title" x="32" y="342">Quality Tools</text>
        <text class="content" x="32" y="366">PHPStan Level Max &#8226; StyleCI &#8226; Super-Linter integration</text>
        <text class="content" x="32" y="384">Mutation testing with 100% MSI requirement</text>
    </g>

    <g>
        <rect class="box-bg" x="16" y="416" width="588" height="84" rx="6"/>
        <rect x="16" y="416" width="4" height="84" fill="#1f883d"/>
        <text class="title" x="32" y="442">PHP 8.3+</text>
        <text class="content" x="32" y="466">Modern PHP features &#8226; Type safety &#8226; Performance optimizations</text>
        <text class="content" x="32" y="484">Multi-version CI matrix: 8.3, 8.4, 8.5</text>
    </g>

    <g>
        <rect class="box-bg" x="16" y="516" width="588" height="84" rx="6"/>
        <rect x="16" y="516" width="4" height="84" fill="#1f883d"/>
        <text class="title" x="32" y="542">Testing Ready</text>
        <text class="content" x="32" y="566">PHPUnit 11.5 &#8226; Mutation testing &#8226; Codecov integration</text>
        <text class="content" x="32" y="584">Dependency checker &#8226; Rector automated refactoring</text>
    </g>
</svg>
