<svg viewBox="0 0 1200 380" width="100%" height="340" xmlns="http://www.w3.org/2000/svg">
    <style>
        text { font-family: -apple-system, BlinkMacSystemFont, "Segoe UI", Roboto, Helvetica, Arial, sans-serif; }
        .box-bg { fill: #e6f4ea; stroke: #a7cdb3; stroke-width: 1; }
        .title { font-weight: 700; font-size: 16px; fill: #1a202c; }
        .content { font-size: 13px; fill: #4a5568; }
    </style>

    <g>
        <rect class="box-bg" x="20" y="20" width="570" height="100" rx="6"/>
        <rect x="20" y="20" width="4" height="100" fill="#1f883d"/>
        <text class="title" x="40" y="50">Best Practices</text>
        <text class="content" x="40" y="78">PSR standards &#8226; Clean code &#8226; Documentation ready</text>
        <text class="content" x="40" y="98">PER 3.0 + PSR-12 coding standards</text>
    </g>

    <g>
        <rect class="box-bg" x="610" y="20" width="570" height="100" rx="6"/>
        <rect x="610" y="20" width="4" height="100" fill="#1f883d"/>
        <text class="title" x="630" y="50">Easy Setup</text>
        <text class="content" x="630" y="78">Quick start template &#8226; Configuration examples &#8226; Clear structure</text>
        <text class="content" x="630" y="98">Ready-to-use project scaffolding</text>
    </g>

    <g>
        <rect class="box-bg" x="20" y="140" width="570" height="100" rx="6"/>
        <rect x="20" y="140" width="4" height="100" fill="#1f883d"/>
        <text class="title" x="40" y="170">GitHub Actions</text>
        <text class="content" x="40" y="198">CI/CD workflows &#8226; Automated testing &#8226; Quality checks</text>
        <text class="content" x="40" y="218">Super-Linter &#8226; PHPStan &#8226; ECS &#8226; Infection</text>
    </g>

    <g>
        <rect class="box-bg" x="610" y="140" width="570" height="100" rx="6"/>
        <rect x="610" y="140" width="4" height="100" fill="#1f883d"/>
        <text class="title" x="630" y="170">Quality Tools</text>
        <text class="content" x="630" y="198">PHPStan Level Max &#8226; StyleCI &#8226; Super-Linter integration</text>
        <text class="content" x="630" y="218">Mutation testing with 100% MSI requirement</text>
    </g>

    <g>
        <rect class="box-bg" x="20" y="260" width="570" height="100" rx="6"/>
        <rect x="20" y="260" width="4" height="100" fill="#1f883d"/>
        <text class="title" x="40" y="290">PHP 8.3+</text>
        <text class="content" x="40" y="318">Modern PHP features &#8226; Type safety &#8226; Performance optimizations</text>
        <text class="content" x="40" y="338">Multi-version CI matrix: 8.3, 8.4, 8.5</text>
    </g>

    <g>
        <rect class="box-bg" x="610" y="260" width="570" height="100" rx="6"/>
        <rect x="610" y="260" width="4" height="100" fill="#1f883d"/>
        <text class="title" x="630" y="290">Testing Ready</text>
        <text class="content" x="630" y="318">PHPUnit 11.5 &#8226; Mutation testing &#8226; Codecov integration</text>
        <text class="content" x="630" y="338">Dependency checker &#8226; Rector automated refactoring</text>
    </g>
</svg>
